<svg width="218" height="96" viewBox="0 0 218 96" fill="none" xmlns="http://www.w3.org/2000/svg">
<path fill-rule="evenodd" clip-rule="evenodd" d="M67.4769 7.73828C66.0449 5.01888 64.1355 2.85936 61.7488 1.25972C60.8339 0.659853 59.7997 0.299933 58.6461 0.179961C57.5323 0.0599871 55.8218 0 53.5147 0C50.9689 0 48.4827 0.959787 46.0562 2.87936C43.6695 4.79893 41.7402 7.35836 40.2684 10.5577C38.7966 13.717 38.0607 17.0562 38.0607 20.5754C38.2198 24.8545 38.916 28.7336 40.1491 32.2128C42.9336 39.9311 47.6275 43.7903 54.2307 43.7903C59.0439 43.7903 62.7234 42.3906 65.2692 39.5912C67.8151 36.7518 69.4659 33.6925 70.2217 30.4132C71.0172 27.134 71.415 24.2546 71.415 21.7752C71.415 20.2955 71.1167 18.2759 70.52 15.7165C69.9631 13.1171 68.9487 10.4577 67.4769 7.73828ZM63.3599 35.1522C61.2914 38.6714 58.1489 40.431 53.9324 40.431C51.1081 40.431 48.8009 39.5312 47.0109 37.7316C45.2209 35.892 43.9082 33.5325 43.0728 30.6532C42.2772 27.7338 41.8795 24.5945 41.8795 21.2353C41.8795 18.3959 42.317 15.8965 43.1922 13.7369C44.1071 11.5774 45.0021 9.95779 45.8772 8.87803C46.7921 7.75828 47.9059 6.53855 49.2186 5.21884C49.7357 4.65896 50.3125 4.23906 50.949 3.95912C51.5854 3.67918 52.3213 3.53921 53.1567 3.53921H54.7677C57.0749 3.53921 59.1036 4.37903 60.8538 6.05865C62.6438 7.69829 64.0162 9.9178 64.9709 12.7172C65.9654 15.4766 66.4626 18.4959 66.4626 21.7752C66.4626 27.134 65.4283 31.593 63.3599 35.1522Z" fill="#5D40B1"/>
<path fill-rule="evenodd" clip-rule="evenodd" d="M121.886 0.299988C125.864 0.299988 128.848 1.45973 130.837 3.77922C132.826 6.05871 134.098 8.7781 134.655 11.9374C135.212 15.0567 135.491 18.5959 135.491 22.555C135.491 25.7543 135.013 29.0536 134.059 32.4528C133.104 35.8121 131.632 38.6515 129.643 40.9709C127.654 43.2904 125.208 44.4502 122.304 44.4502C116.616 44.4502 112.837 42.0507 110.967 37.2518C109.098 32.4128 108.163 27.234 108.163 21.7152C108.163 16.3964 108.879 12.1374 110.311 8.93807C111.783 5.73878 113.553 3.49928 115.621 2.21956C117.73 0.939846 119.818 0.299988 121.886 0.299988ZM121.827 29.2136C122.901 29.2136 123.696 28.6137 124.214 27.414C124.731 26.2142 124.989 24.7745 124.989 23.0949C124.989 21.4953 124.731 20.0956 124.214 18.8959C123.736 17.6961 123.08 17.0963 122.244 17.0963C121.25 17.0963 120.494 17.7961 119.977 19.1958C119.5 20.5555 119.261 22.0352 119.261 23.6348C119.261 25.2744 119.42 26.6141 119.738 27.6539C120.057 28.6937 120.753 29.2136 121.827 29.2136Z" fill="#5D40B1"/>
<path d="M90.1311 0.660004C92.8361 0.660004 94.8847 1.1199 96.2769 2.03969C97.7089 2.95949 98.7034 3.8193 99.2603 4.61912C99.8172 5.37895 100.175 5.83885 100.334 5.99882C100.653 6.35874 100.812 6.73865 100.812 7.13856C100.812 7.61846 100.633 8.03836 100.275 8.39828C99.9166 8.7582 99.4592 9.15811 98.9023 9.59801C98.3852 10.0379 97.9078 10.4178 97.4703 10.7378C97.2714 10.8577 97.0924 10.9177 96.9332 10.9177C96.5752 10.9177 96.2172 10.7378 95.8592 10.3778C95.7797 10.2979 95.2029 9.638 94.1289 8.39828C93.0548 7.11857 91.4438 6.47871 89.2958 6.47871C87.6648 6.47871 86.2527 7.35851 85.0594 9.11812C83.866 10.8377 82.9511 12.9373 82.3146 15.4167C81.718 17.8562 81.4196 20.1357 81.4196 22.2552C81.4196 24.4547 81.7378 26.7942 82.3743 29.2736C83.0108 31.7531 84.0251 33.8726 85.4174 35.6322C86.8494 37.3918 88.6394 38.2716 90.7875 38.2716C93.6515 38.2716 95.8393 37.1519 97.3509 34.9124C97.9874 33.8726 98.405 32.7329 98.6039 31.4931H96.8736L94.1885 31.4332L88.1621 31.3732C87.4858 31.3732 87.1477 31.0532 87.1477 30.4134V28.0739C87.1477 27.674 87.2074 27.434 87.3267 27.3541C87.4461 27.2341 87.6052 27.1741 87.8041 27.1741H90.5488L102.781 26.8742C103.139 26.8742 103.397 27.0541 103.556 27.4141C103.755 27.774 103.835 28.2539 103.795 28.8537C103.795 30.2534 103.536 32.073 103.019 34.3125C102.502 36.512 101.229 38.6715 99.2006 40.7911C97.1719 42.8706 94.1488 43.9104 90.1311 43.9104C87.1477 43.9104 84.582 42.7706 82.434 40.4911C80.3257 38.2117 78.7346 35.2923 77.6606 31.7331C76.6263 28.1339 76.1092 24.4547 76.1092 20.6955C76.1092 17.1763 76.7457 13.8771 78.0186 10.7977C79.3313 7.71843 81.0616 5.25898 83.2097 3.41939C85.3975 1.5798 87.7046 0.660004 90.1311 0.660004Z" fill="#5D40B1"/>
<path d="M12.212 22.4351C12.212 26.3142 12.4905 29.3135 13.0474 31.4331C13.644 33.5526 14.4197 35.0123 15.3744 35.8121C16.3689 36.5719 17.5821 36.9518 19.0141 36.9518C20.6053 36.9518 21.8981 36.5319 22.8925 35.6921C23.9268 34.8123 24.6627 33.7726 25.1002 32.5728C25.5378 31.3731 25.7566 30.2333 25.7566 29.1536L25.9356 12.5973C25.856 11.3975 25.8163 10.0778 25.8163 8.63814L25.8759 2.81943C25.7964 1.81966 25.8958 1.1998 26.1743 0.959851C26.4527 0.679912 26.8505 0.539943 27.3676 0.539943C27.6063 0.499952 27.9842 0.459961 28.5013 0.419971C29.0184 0.339987 29.4958 0.299995 29.9333 0.299995C30.3709 0.299995 30.6891 0.319991 30.888 0.359982C31.5643 0.399975 31.9819 0.539944 32.141 0.77989C32.3002 0.979845 32.3598 1.49973 32.32 2.33954L32.2007 20.6955C32.1609 20.9754 32.141 21.2953 32.141 21.6552C32.1808 21.9752 32.2007 22.2751 32.2007 22.555V24.4746C32.2007 37.1918 28.4416 43.5504 20.9235 43.5504C16.9854 43.5504 13.9424 42.5706 11.7943 40.611C9.68607 38.6115 8.29382 36.472 7.61759 34.1925C6.98113 31.873 6.66291 29.9134 6.66291 28.3138L6.72257 23.1549C6.76235 22.3951 6.78224 21.5353 6.78224 20.5755C6.78224 20.0556 6.84191 19.7557 6.96124 19.6757C7.08058 19.5557 7.31925 19.5157 7.67726 19.5557C8.11482 19.5557 9.34795 19.4157 11.3767 19.1358C12.0927 19.0958 12.4507 19.4557 12.4507 20.2156C12.4507 20.4555 12.4109 20.7954 12.3313 21.2353C12.2518 21.6752 12.212 22.0752 12.212 22.4351Z" fill="#5D40B1"/>
<path fill-rule="evenodd" clip-rule="evenodd" d="M125.71 87.595C126.851 88.6348 128.415 89.1546 130.404 89.1546C132.844 89.1546 134.806 88.6081 136.292 87.515C136.345 87.5683 136.371 87.635 136.371 87.715C136.398 87.7949 136.424 87.8483 136.451 87.8749L136.53 88.3548C136.53 88.4881 136.57 88.6081 136.65 88.7147C136.756 88.7947 136.862 88.8347 136.968 88.8347C137.153 88.8347 137.352 88.8214 137.564 88.7947C137.777 88.7681 138.015 88.7547 138.28 88.7547C138.678 88.7547 139.328 88.7281 140.23 88.6747C141.131 88.6214 141.741 88.5948 142.059 88.5948C142.537 88.5948 142.775 88.2882 142.775 87.675L142.736 87.1951C142.762 86.5286 142.722 85.5821 142.616 84.3557C142.51 83.236 142.457 82.3961 142.457 81.8363C142.51 80.9031 142.537 79.4501 142.537 77.4772C142.616 75.2644 142.444 73.2782 142.02 71.5186C141.993 71.3853 141.914 71.1053 141.781 70.6787C141.675 70.2255 141.542 69.7589 141.383 69.2791C141.224 68.7992 141.012 68.3593 140.747 67.9594C139.421 65.9865 137.339 65 134.502 65C133.6 65 132.791 65.08 132.075 65.24C131.359 65.3999 130.51 65.7198 129.529 66.1997C128.575 66.6796 127.355 67.4128 125.87 68.3993C125.551 68.6125 125.392 68.7992 125.392 68.9591C125.392 69.1191 125.472 69.359 125.631 69.679C125.817 69.9989 125.936 70.2788 125.989 70.5188C126.122 71.0787 126.294 71.5186 126.506 71.8385C126.639 72.0251 126.758 72.1184 126.864 72.1184C126.944 72.1184 126.997 72.1051 127.023 72.0784C128.296 71.1986 129.582 70.4655 130.882 69.8789C132.181 69.2657 133.083 68.9591 133.587 68.9591C134.276 68.9591 134.82 69.1724 135.218 69.599C135.615 69.9989 135.881 70.8387 136.013 72.1184L136.212 74.198V74.7178C135.576 74.7178 134.634 74.8112 133.388 74.9978L131.518 75.2377C129.556 75.451 127.805 76.0509 126.267 77.0373C124.756 78.0238 124 79.7567 124 82.2362C124 84.7689 124.57 86.5552 125.71 87.595ZM133.547 84.9556C132.46 85.2222 131.279 85.3555 130.007 85.3555C128.893 85.3555 128.11 85.1822 127.66 84.8356C127.209 84.489 127.01 84.0891 127.063 83.6359C127.143 82.2495 127.686 81.343 128.694 80.9165C129.728 80.4899 130.815 80.2766 131.956 80.2766C132.91 80.2766 133.613 80.3033 134.064 80.3566C134.541 80.3833 135.231 80.4766 136.132 80.6365L136.212 83.8358C135.523 84.3157 134.634 84.689 133.547 84.9556Z" fill="#5D40B1"/>
<path d="M107.439 89.1202C106.538 89.0935 105.583 89.0802 104.575 89.0802C103.806 89.0802 103.422 88.6936 103.422 87.9204L103.461 79.9622V78.3226C103.435 77.8694 103.422 77.3095 103.422 76.643C103.422 75.9498 103.461 74.87 103.541 73.4037C103.621 72.4172 103.687 70.431 103.74 67.445C103.793 64.459 103.819 62.3928 103.819 61.2464C103.819 60.5532 103.886 60.0466 104.018 59.7267C104.151 59.4068 104.376 59.2602 104.695 59.2868C105.039 59.3135 105.503 59.3268 106.087 59.3268C106.75 59.3268 107.214 59.3001 107.479 59.2468C107.824 59.1668 108.062 59.3135 108.195 59.6867C108.328 60.0333 108.394 60.4332 108.394 60.8865L108.354 65.7254L109.15 65.3655C109.866 65.0189 110.555 64.7523 111.218 64.5656C111.908 64.379 112.849 64.2857 114.043 64.2857C115.713 64.2857 117.013 64.6323 117.941 65.3255C118.869 66.0187 119.545 67.2717 119.97 69.0846C120.42 70.8976 120.646 73.537 120.646 77.0029C120.646 81.4819 120.632 84.028 120.606 84.6412L120.646 88.2404C120.646 88.507 120.606 88.7203 120.526 88.8802C120.447 89.0402 120.341 89.1202 120.208 89.1202H116.509C116.27 89.1202 116.124 89.0402 116.071 88.8802C116.018 88.6936 115.992 88.4137 115.992 88.0404C115.992 87.8538 116.005 87.5739 116.031 87.2006C116.058 86.8274 116.071 86.3741 116.071 85.8409C116.071 85.4943 116.045 85.1344 115.992 84.7612C115.965 84.6278 115.978 83.5348 116.031 81.4819C116.111 77.8027 116.151 75.7632 116.151 75.3632C116.151 73.5503 116.058 72.1506 115.872 71.1642C115.713 70.1511 115.368 69.4046 114.838 68.9247C114.334 68.4448 113.565 68.2048 112.531 68.2048C110.86 68.2048 109.468 68.7114 108.354 69.7245C108.222 72.9238 108.155 76.0431 108.155 79.0824C108.155 80.5221 108.195 82.7616 108.275 85.8009L108.314 87.7605C108.314 88.1871 108.261 88.5203 108.155 88.7603C108.049 89.0002 107.811 89.1202 107.439 89.1202Z" fill="#5D40B1"/>
<path d="M94.4466 88.8403C95.0831 89.1336 96.0377 89.2802 97.3107 89.2802C98.2919 89.2802 99.0477 89.2269 99.578 89.1202C100.108 89.0136 100.639 88.7203 101.169 88.2404C101.302 88.1071 101.368 87.9872 101.368 87.8805C101.368 87.8272 101.355 87.7872 101.328 87.7606C101.169 87.4939 101.037 87.1607 100.931 86.7608C100.798 86.3875 100.626 86.2009 100.413 86.2009C100.334 86.2009 100.188 86.2409 99.9758 86.3209C99.7902 86.4009 99.5648 86.4408 99.2996 86.4408C98.7162 86.4408 98.4245 86.2675 98.4245 85.921V85.1211C98.4245 84.3746 98.4112 83.5882 98.3847 82.7617C98.3582 81.9352 98.3316 81.202 98.3051 80.5621L98.2256 78.0027L98.2653 74.4835C98.2653 73.2838 98.2521 72.3506 98.2256 71.6841V70.6044C98.2256 70.3644 98.2123 70.0712 98.1858 69.7246C98.1858 69.378 98.199 68.9647 98.2256 68.4848C98.199 65.5788 98.3051 63.1527 98.5438 61.2065C98.5968 60.6732 98.6234 60.3666 98.6234 60.2867C98.6234 60.0734 98.5571 59.9134 98.4245 59.8068C98.3184 59.7001 98.1195 59.6335 97.8278 59.6068C97.5626 59.5802 97.0853 59.5668 96.3958 59.5668H95.4013C95.1891 59.5668 94.9505 59.5802 94.6853 59.6068C94.4466 59.6068 94.2212 59.5935 94.009 59.5668C93.9295 59.5402 93.8234 59.5268 93.6908 59.5268C93.4521 59.5268 93.2665 59.6468 93.1339 59.8868C93.0278 60.1 92.9881 60.5266 93.0146 61.1665V62.8861L92.9748 64.4057C92.9483 64.939 92.935 65.6855 92.935 66.6452V74.4035C92.935 74.8568 92.9483 75.2833 92.9748 75.6832L93.0146 80.3622C93.0146 81.4286 93.0013 82.1885 92.9748 82.6417L92.935 85.2011C92.935 86.1609 93.0278 86.9341 93.2135 87.5206C93.4256 88.0805 93.8367 88.5204 94.4466 88.8403Z" fill="#5D40B1"/>
<path fill-rule="evenodd" clip-rule="evenodd" d="M82.4565 90C78.4787 90 75.8268 88.6537 74.5008 85.9609C73.1749 83.2415 72.5119 80.3355 72.5119 77.2429C72.5119 74.2569 72.9627 71.8707 73.8643 70.0844C74.766 68.2715 75.8533 67.0051 77.1262 66.2853C78.4256 65.5655 79.725 65.2055 81.0245 65.2055C83.4642 65.2055 85.294 65.912 86.5139 67.3251C87.7603 68.7381 88.5559 70.391 88.9006 72.284C89.2719 74.1502 89.4575 76.1764 89.4575 78.3626C89.4575 78.5492 89.3249 78.6692 89.0597 78.7225C88.1846 78.7225 86.1692 78.8692 83.0134 79.1624C82.5095 79.2158 81.8996 79.2824 81.1836 79.3624C80.4676 79.4157 79.672 79.469 78.7969 79.5224C79.0356 82.1084 80.4278 83.4015 82.9736 83.4015C83.8222 83.4015 84.472 83.3215 84.9228 83.1615C85.4001 83.0016 86.1559 82.6683 87.1902 82.1618C87.3758 82.1618 87.5349 82.2684 87.6675 82.4817C87.8266 82.695 88.0388 83.1349 88.3039 83.8014C88.3835 83.9347 88.4763 84.188 88.5824 84.5612C88.715 84.9345 88.8343 85.2144 88.9404 85.401C89.4443 86.6808 89.6829 87.3473 89.6564 87.4006C89.6034 87.5072 89.4575 87.6539 89.2189 87.8405C88.662 88.4004 87.7603 88.8936 86.5139 89.3202C85.294 89.7734 83.9416 90 82.4565 90ZM83.4112 76.803C83.199 73.7636 82.4698 72.244 81.2234 72.244C80.4808 72.244 79.9107 72.6839 79.5129 73.5637C79.1151 74.4168 78.8764 75.6299 78.7969 77.2029L83.4112 76.803Z" fill="#5D40B1"/>
<path d="M59.1202 89.0402C59.2263 89.2268 59.4649 89.3202 59.8362 89.3202C60.1809 89.3202 61.2019 89.2668 62.8991 89.1602C63.9334 89.0802 64.6892 89.0402 65.1665 89.0402L65.7632 89.0802C66.0549 89.0802 66.2405 88.8936 66.3201 88.5203C66.3731 88.3604 66.4792 87.8405 66.6383 86.9607C66.7974 86.0809 66.9168 85.4144 66.9963 84.9611C67.4737 82.1084 67.8715 80.0156 68.1897 78.6825C68.667 77.1629 69.2504 74.7634 69.9399 71.4841L70.2582 70.0044C70.656 68.3248 70.9477 67.2451 71.1333 66.7652C71.1863 66.4986 71.2128 66.3253 71.2128 66.2453C71.2128 66.032 71.0007 65.8987 70.5764 65.8454C69.993 65.7921 68.5875 65.7654 66.3599 65.7654H65.8825C65.6439 65.7387 65.445 65.7921 65.2859 65.9254C65.1267 66.0587 65.0737 66.4053 65.1267 66.9651C65.1533 67.4983 64.8483 68.9513 64.2118 71.3242C63.6814 73.377 63.403 74.5768 63.3765 74.9234C63.1378 76.3364 62.9389 77.3228 62.7798 77.8827L62.3422 79.8423L61.5865 76.563C61.1091 74.6434 60.7909 73.1104 60.6318 71.964L60.3931 70.4444C60.1014 68.4181 59.876 67.2051 59.7169 66.8052C59.6108 66.4053 59.4914 66.1253 59.3589 65.9653C59.2263 65.8054 58.9611 65.7521 58.5633 65.8054L56.3357 65.8854L54.6252 65.9254C54.4131 65.9254 54.2009 65.912 53.9888 65.8854C53.8031 65.832 53.644 65.8054 53.5114 65.8054C53.2462 65.8054 53.1136 65.8987 53.1136 66.0853C53.1136 66.1386 53.1401 66.2453 53.1932 66.4053L53.4716 67.605C53.7368 68.6181 54.2142 70.551 54.9037 73.4037C55.6197 76.2564 56.0838 78.056 56.2959 78.8025C56.6937 80.2422 57.1445 81.8951 57.6484 83.7614C58.1788 85.6276 58.5765 87.0673 58.8417 88.0804C58.9213 88.5337 59.0141 88.8536 59.1202 89.0402Z" fill="#5D40B1"/>
<path fill-rule="evenodd" clip-rule="evenodd" d="M28.887 89.5601C26.9511 89.5601 25.3997 89.1735 24.2329 88.4004C23.066 87.6272 22.4826 86.2542 22.4826 84.2813C22.6152 83.0016 23.5566 82.0551 25.3069 81.4419C27.0572 80.8287 29.0196 80.5221 31.1941 80.5221C31.8836 80.5221 32.7057 80.4688 33.6604 80.3621C34.6151 80.2555 35.4902 80.2022 36.2858 80.2022C36.1797 77.3228 35.9941 75.07 35.7289 73.4437C35.4902 71.7907 35.0659 70.551 34.456 69.7245C33.8725 68.898 33.0372 68.4848 31.9499 68.4848C31.1543 68.4848 30.3986 68.6714 29.6825 69.0447C28.9665 69.4179 28.0781 70.0044 27.0174 70.8043L25.7047 71.7641C25.6782 71.7641 25.5854 71.8174 25.4262 71.924C25.2936 72.004 25.161 72.0307 25.0285 72.004C24.7898 71.9507 24.6704 71.8307 24.6704 71.6441C24.5644 71.4841 24.4318 71.1242 24.2727 70.5643C24.1401 70.0044 24.0738 69.6045 24.0738 69.3646C24.0738 69.2046 24.2329 69.018 24.5511 68.8047C25.9036 67.7916 27.0439 67.0451 27.9721 66.5652C28.9267 66.0587 29.7356 65.7387 30.3986 65.6054C31.088 65.4721 31.8836 65.4055 32.7853 65.4055C35.4372 65.4055 37.2139 66.2719 38.1156 68.0049C39.0438 69.7112 39.5078 71.9907 39.5078 74.8434C39.5078 75.5899 39.4813 76.603 39.4283 77.8827C39.4283 78.6559 39.3752 79.7889 39.2692 81.2819L39.2294 82.2417L39.2692 84.6012C39.3222 85.6676 39.3487 86.4808 39.3487 87.0407L39.3089 88.2404C39.2559 88.8536 39.0172 89.1602 38.5929 89.1602L38.2747 89.1202H36.6438C36.5377 89.1202 36.4316 89.0802 36.3256 89.0002C36.246 88.8936 36.2062 88.7736 36.2062 88.6403V88.3204C34.6151 88.7736 33.3422 89.0935 32.3875 89.2802C31.4328 89.4668 30.266 89.5601 28.887 89.5601ZM28.9267 87.2806C31.7643 87.2806 34.1908 86.8007 36.2062 85.8409L36.3256 82.1218C35.0792 82.0151 34.0051 81.9618 33.1035 81.9618L30.7566 82.0018C29.4836 82.0018 28.3433 82.2551 27.3356 82.7616C26.3279 83.2415 25.7842 83.9214 25.7047 84.8012C25.7047 85.7609 25.9301 86.4141 26.3809 86.7607C26.8317 87.1073 27.6804 87.2806 28.9267 87.2806Z" fill="#5D40B1"/>
<path fill-rule="evenodd" clip-rule="evenodd" d="M4.77342 88.6403C5.8607 89.2535 7.08057 89.5601 8.43304 89.5601C9.28165 89.5601 10.1037 89.3735 10.8993 89.0003C11.6949 88.627 12.4905 88.1338 13.286 87.5206V88.3204C13.286 88.7203 13.3656 88.9736 13.5247 89.0802C13.7103 89.1869 14.0153 89.2402 14.4396 89.2402C15.4208 89.2402 16.3755 89.2669 17.3037 89.3202C17.5954 89.3202 17.8075 89.2535 17.9401 89.1202C18.0992 88.9869 18.1788 88.747 18.1788 88.4004L18.2583 61.0465C18.2583 60.6199 18.192 60.2333 18.0594 59.8867C17.9268 59.5135 17.6882 59.3535 17.3434 59.4068C17.1048 59.4602 16.76 59.4868 16.3092 59.4868L14.5589 59.4468C14.2407 59.4468 14.0153 59.6068 13.8827 59.9267C13.7501 60.22 13.6838 60.7132 13.6838 61.4064L13.6043 68.0049C13.2065 67.605 12.8882 67.3118 12.6496 67.1251C12.4374 66.9385 11.9468 66.7385 11.1778 66.5253C10.4087 66.312 9.37447 66.2053 8.07504 66.2053C7.06732 66.2053 6.05959 66.4719 5.05187 67.0051C4.12371 67.5117 3.26184 68.2715 2.46627 69.2846C1.61766 70.3777 0.994463 71.5375 0.596678 72.7639C0.198892 73.9636 0 75.4033 0 77.0829C0 80.7354 0.689494 83.6814 2.06848 85.9209C2.81101 87.1207 3.71266 88.0271 4.77342 88.6403ZM10.9391 86.2409C10.17 86.6141 9.29491 86.8008 8.31371 86.8008C6.4839 86.8008 5.10491 85.8543 4.17674 83.9614C3.32814 82.3084 2.90383 80.1222 2.90383 77.4028C2.90383 76.3097 3.03643 75.35 3.30162 74.5235C3.56681 73.697 3.97785 72.8439 4.53475 71.9641C5.01209 71.2176 5.62203 70.6044 6.36456 70.1245C7.10709 69.6712 7.88941 69.4446 8.71149 69.4446C9.34795 69.4446 10.0374 69.5912 10.78 69.8845C11.5225 70.1778 12.1457 70.591 12.6496 71.1242C13.1534 71.6574 13.4054 72.2706 13.4054 72.9638C13.4054 74.0036 13.4319 75.0567 13.4849 76.1231C13.538 77.0296 13.5645 77.7628 13.5645 78.3226L13.4849 80.0822C13.3788 81.3086 13.3258 82.2418 13.3258 82.8816C13.3258 83.5215 13.1136 84.148 12.6893 84.7612C12.2916 85.3744 11.7081 85.8676 10.9391 86.2409Z" fill="#5D40B1"/>
<path d="M139.422 29.4136C139.708 27.7829 139.94 26.1374 140.124 24.5037L140.688 24.4999C141.628 24.5044 143.275 24.4664 145.629 24.386L145.821 23.8703C148.297 17.2108 150.194 12.4108 151.512 9.47027C151.986 8.43244 152.46 7.09189 152.935 5.44865C153.725 2.94054 154.358 1.47027 154.832 1.03784C155.78 0.345948 156.729 0 157.677 0C158.573 0 159.232 0.259461 159.654 0.778384C160.128 1.2973 160.26 2.03243 160.049 2.98378C159.785 4.28108 158.969 6.44325 157.598 9.47027C156.755 11.2 155.517 14.1405 153.883 18.2919L151.907 23.2216C151.802 23.4668 151.679 23.772 151.54 24.1373C154.657 23.9294 156.978 23.8569 158.502 23.9197C159.643 24.0988 162.372 24.3994 164.166 24.1683C164.914 24.0719 166.028 23.7586 167.251 23.415C169.692 22.7288 172.562 21.922 173.796 22.4828C173.904 22.7229 174.148 22.8439 174.529 22.8457C175.01 22.86 175.559 22.8147 176.175 22.7098C176.871 22.5693 177.499 22.4884 178.059 22.4671L190.49 21.6276C191.218 21.5782 191.925 21.5313 192.612 21.4869C194.424 16.7083 195.86 13.1352 196.921 10.7676C197.395 9.72974 197.87 8.38919 198.344 6.74594C199.134 4.23784 199.767 2.76757 200.241 2.33514C201.19 1.64324 202.138 1.2973 203.087 1.2973C203.983 1.2973 204.641 1.55676 205.063 2.07568C205.537 2.5946 205.669 3.32973 205.458 4.28108C205.195 5.57838 204.378 7.74055 203.008 10.7676C202.164 12.4973 200.926 15.4378 199.292 19.5892L198.674 21.132C201.715 20.9772 204.143 20.8973 205.958 20.8925C207.099 20.8979 208.516 20.7788 210.209 20.5353C212.82 20.2242 214.421 20.1959 215.01 20.4503C216.031 21.0302 216.736 21.7525 217.126 22.617C217.495 23.4335 217.529 24.1406 217.229 24.7383C216.951 25.384 216.336 25.8064 215.382 26.0055C214.091 26.2989 211.784 26.4437 208.461 26.4399C206.537 26.3828 203.347 26.4635 198.891 26.6819L196.455 26.7858C195.766 28.7264 194.815 31.6032 193.601 35.4162C192.078 40.2018 190.896 43.9551 190.056 46.676C190.018 46.7567 189.988 46.8518 189.965 46.9622L189.96 46.9862C189.82 47.4413 189.69 47.8657 189.57 48.2595C189.339 48.8019 189.18 49.2933 189.094 49.7337C187.773 53.1683 185.493 57.545 184.695 58.8541C184.396 59.3455 184.187 59.8742 184.046 60.4021C183.886 60.6592 183.698 61.0224 183.483 61.4919C182.992 62.4721 182.488 63.5292 181.973 64.6631L185.3 64.4384C192.39 63.957 197.546 63.7119 200.768 63.7033C201.909 63.7087 203.326 63.5896 205.019 63.3461C207.631 63.035 209.231 63.0067 209.82 63.2611C210.841 63.8411 211.547 64.5633 211.937 65.4278C212.305 66.2444 212.339 66.9514 212.04 67.5491C211.762 68.1948 211.146 68.6172 210.192 68.8163C208.901 69.1097 206.594 69.2545 203.271 69.2507C201.348 69.1936 198.158 69.2743 193.702 69.4927L188.395 69.7191C187.02 69.7434 184.006 70.0165 179.353 70.5382C178.919 71.4761 178.557 72.2228 178.266 72.7784C177.529 74.3351 176.527 76.8 175.263 80.173C174.051 83.5459 173.234 86.0973 172.812 87.827C172.338 89.4703 171.679 91.1135 170.836 92.7568C170.046 94.4 169.413 95.3946 168.939 95.7405C168.518 95.9135 168.07 96 167.595 96C166.647 96 165.698 95.7838 164.75 95.3513C164.275 95.0919 164.038 94.7027 164.038 94.1838C164.038 93.7513 164.196 93.1027 164.513 92.2378C164.829 91.373 165.066 90.7676 165.224 90.4216C165.54 89.5567 166.383 87.5676 167.753 84.454C169.176 81.2541 170.204 78.9189 170.836 77.4486L173.366 71.7405C173.437 71.5837 173.517 71.4047 173.606 71.2036C170.173 71.607 167.375 71.9439 165.211 72.2144C165.122 72.213 165.022 72.2243 164.913 72.2493L164.889 72.2547C164.416 72.314 163.976 72.37 163.567 72.4226C162.978 72.4349 162.465 72.4922 162.028 72.5947C158.354 72.8042 153.426 72.5258 151.905 72.3372C151.334 72.2664 150.766 72.2936 150.227 72.382C149.926 72.3414 149.518 72.3198 149.002 72.3174C148.768 72.3077 148.53 72.2991 148.29 72.2913C147.756 70.3019 147.106 68.4892 146.378 66.9463C149.481 66.7398 151.793 66.6678 153.313 66.7305C154.453 66.9096 157.183 67.2102 158.976 66.9791C159.724 66.8827 160.838 66.5695 162.06 66.2261C164.501 65.5399 167.373 64.7328 168.606 65.2936C168.714 65.5337 168.959 65.6547 169.339 65.6565C169.82 65.6708 170.369 65.6255 170.986 65.5206C171.682 65.3801 172.309 65.2992 172.869 65.2779L176.166 65.0553C176.498 64.237 176.856 63.3519 177.239 62.4C178.451 59.1135 179.426 56.7351 180.164 55.2649C180.796 54.2991 182.192 51.9352 182.719 50.2054C182.939 49.4841 183.112 48.3393 183.301 47.084C183.68 44.5765 184.125 41.6284 185.143 40.7351C185.407 40.7351 185.618 40.5622 185.776 40.2162C185.987 39.7838 186.171 39.2649 186.329 38.6595C186.487 37.9676 186.672 37.3622 186.882 36.8432L190.506 27.1122C188.487 27.2918 185.692 27.5891 182.123 28.004C177.134 28.5839 173.226 29.0504 170.4 29.4035C170.311 29.4022 170.212 29.4135 170.102 29.4385L170.078 29.4439C169.606 29.5032 169.165 29.5592 168.757 29.6118C168.167 29.624 167.654 29.6814 167.217 29.7839C163.543 29.9934 158.616 29.715 157.094 29.5264C156.523 29.4556 155.955 29.4828 155.416 29.5712C155.116 29.5306 154.708 29.509 154.191 29.5066C152.814 29.4498 151.319 29.4262 149.705 29.4356C149.257 30.7971 148.752 32.3582 148.192 34.1189C146.669 38.9045 145.487 42.6578 144.647 45.3787C144.609 45.4594 144.578 45.5545 144.556 45.6649L144.551 45.6889C144.411 46.144 144.281 46.5684 144.161 46.9622C143.929 47.5046 143.771 47.996 143.684 48.4364C142.364 51.871 140.084 56.2477 139.286 57.5568C138.987 58.0482 138.778 58.5769 138.637 59.1048C138.476 59.3619 138.289 59.7251 138.074 60.1946C137.985 60.3716 137.896 60.551 137.807 60.733C135.89 60.4993 133.864 60.5092 132 60.6426C133.133 57.5933 134.051 55.3683 134.754 53.9676C135.387 53.0018 136.783 50.6379 137.31 48.9081C137.53 48.1868 137.703 47.0419 137.892 45.7866C138.271 43.2792 138.716 40.3311 139.734 39.4378C139.998 39.4378 140.208 39.2649 140.367 38.9189C140.577 38.4865 140.762 37.9676 140.92 37.3622C141.078 36.6703 141.262 36.0649 141.473 35.5459L143.741 29.4564C142.939 29.4444 142.277 29.4234 141.757 29.3935C141.111 29.3814 140.332 29.3881 139.422 29.4136Z" fill="#D6DA01"/>
<path d="M167.608 57.9714C167.478 57.9523 167.381 57.9045 167.316 57.8281C167.252 57.7708 167.176 57.6467 167.09 57.4557L166.734 56.8254C166.626 56.6153 166.335 56.2237 165.86 55.6507C165.32 55.0014 164.964 54.4952 164.792 54.1323C164.576 53.7885 164.166 53.1774 163.562 52.2988C162.979 51.4011 162.526 50.7135 162.202 50.236C162.051 50.045 161.922 49.9495 161.814 49.9495C161.728 49.9495 161.587 50.0641 161.393 50.2933C161.091 50.618 160.778 50.9809 160.455 51.382C159.915 52.0505 159.516 52.5184 159.257 52.7858C158.955 53.1296 158.545 53.6739 158.027 54.4188C157.531 55.1637 157.196 55.7271 157.024 56.1091C156.83 56.472 156.56 56.8349 156.215 57.1978C155.891 57.5607 155.632 57.7804 155.438 57.8568C155.265 57.895 155.082 57.9141 154.888 57.9141C154.499 57.9141 154.111 57.8663 153.722 57.7708C153.528 57.7135 153.431 57.6276 153.431 57.513C153.431 57.4175 153.496 57.2742 153.625 57.0832C153.755 56.8922 153.852 56.7585 153.917 56.6821C154.046 56.4911 154.391 56.0518 154.952 55.3643C155.535 54.6576 155.956 54.1419 156.215 53.8172L157.25 52.5566C157.509 52.251 158.038 51.5634 158.836 50.4939C159.333 49.7681 159.732 49.2428 160.034 48.9181C160.293 48.5935 160.422 48.2974 160.422 48.03C160.422 47.839 160.347 47.6098 160.196 47.3424C160.088 47.1514 159.721 46.588 159.095 45.6521L157.574 43.2169C157.293 42.7394 156.484 41.5839 155.146 39.7503C154.521 38.91 154.111 38.337 153.917 38.0314C153.766 37.8213 153.69 37.6494 153.69 37.5157C153.69 37.3056 153.841 37.2196 154.143 37.2578C154.337 37.2769 154.65 37.2674 155.082 37.2292L155.794 37.2005C155.966 37.2196 156.118 37.296 156.247 37.4297C156.398 37.5634 156.571 37.7735 156.765 38.06L157.218 38.6617L157.574 39.1774C158.351 40.266 158.944 41.116 159.354 41.7271C159.743 42.3383 160.314 43.1978 161.07 44.3056C161.415 44.8213 161.749 45.2892 162.073 45.7094C162.181 45.7094 162.267 45.6712 162.332 45.5948C162.418 45.4993 162.494 45.3847 162.558 45.251C162.623 45.0982 162.699 44.9645 162.785 44.8499L164.565 42.2715C165.579 40.8008 166.356 39.7408 166.896 39.0914C167.09 38.8622 167.284 38.5662 167.478 38.2033C167.802 37.6494 168.061 37.3247 168.255 37.2292C168.643 37.0764 169.032 37 169.42 37C169.787 37 170.057 37.0573 170.229 37.1719C170.424 37.2865 170.478 37.4488 170.391 37.6589C170.283 37.9454 169.949 38.4229 169.388 39.0914C169.043 39.4734 168.536 40.1228 167.867 41.0396L167.057 42.1282C166.799 42.4529 166.291 43.2551 165.536 44.5348C164.781 45.8145 164.231 46.7599 163.886 47.3711C163.734 47.5621 163.659 47.7244 163.659 47.8581C163.659 47.9536 163.734 48.1542 163.886 48.4598C163.95 48.5744 164.252 49.0136 164.792 49.7776C164.9 49.9304 165.018 50.0928 165.148 50.2647C165.277 50.4366 165.396 50.618 165.504 50.809C166.41 52.2606 167.155 53.3302 167.737 54.0177C168.147 54.5907 168.579 55.2115 169.032 55.8799C169.485 56.5484 169.841 57.0832 170.1 57.4843C170.186 57.618 170.229 57.7231 170.229 57.7995C170.229 57.9332 170.035 58 169.647 58L167.608 57.9714Z" fill="#D6DA01"/>
<path fill-rule="evenodd" clip-rule="evenodd" d="M187.392 90.6485C187.886 90.8178 189.051 90.9349 190.887 91C192.604 91 193.996 90.7006 195.062 90.1018C196.148 89.49 196.809 88.6699 197.046 87.6416C197.303 86.6653 197.431 85.5523 197.431 84.3027C197.431 83.092 197.372 82.0312 197.253 81.1199C197.135 80.1957 196.73 79.3301 196.039 78.523C195.348 77.7159 193.917 77.2083 191.745 77C190.067 77.013 188.774 77.1627 187.866 77.4491C186.998 77.7225 186.277 78.152 185.704 78.7378C185.211 79.2715 184.875 79.9614 184.698 80.8075C184.52 81.6536 184.431 82.643 184.431 83.7755C184.431 85.715 184.52 86.9712 184.698 87.5439C184.915 88.1297 185.29 88.748 185.823 89.3989C186.376 90.0628 186.899 90.4793 187.392 90.6485ZM193.7 89.3208C193.029 89.6072 192.407 89.7504 191.834 89.7504C190.906 89.7504 190.235 89.5681 189.821 89.2036L189.376 88.7741C189.12 88.4877 188.833 88.2273 188.518 87.993C188.261 87.7848 188.093 87.5179 188.014 87.1925C187.935 86.867 187.876 86.3789 187.837 85.728L187.777 83.834L187.748 82.1548C187.728 81.9075 187.718 81.5951 187.718 81.2176C187.718 80.6709 187.896 80.1632 188.251 79.6946C188.488 79.3691 188.685 79.1283 188.843 78.9721C189.021 78.8029 189.238 78.6597 189.495 78.5425C190.127 78.2692 190.788 78.1325 191.479 78.1325C191.953 78.1065 192.288 78.0934 192.486 78.0934C192.723 78.0934 193.058 78.1065 193.493 78.1325C193.848 78.1585 194.174 78.2301 194.47 78.3473C194.766 78.4644 195.003 78.6206 195.18 78.8159C195.694 79.4147 196.01 80.007 196.128 80.5928C196.148 80.6578 196.187 80.8596 196.247 81.198C196.326 81.5235 196.365 81.8945 196.365 82.311C196.365 83.1181 196.345 83.7689 196.306 84.2636C196.286 84.3677 196.276 84.4719 196.276 84.576C196.296 84.6671 196.306 84.7517 196.306 84.8298V85.2399C196.306 85.6695 196.286 86.0144 196.247 86.2748C196.168 86.9777 195.881 87.596 195.388 88.1297C194.934 88.6374 194.371 89.0344 193.7 89.3208Z" fill="#D6DA01"/>
</svg>
