<svg width="27" height="44" viewBox="0 0 27 44" fill="none" xmlns="http://www.w3.org/2000/svg">
<path d="M13.08 43.02C9.36 42.82 7 42.46 6 41.94C5 41.42 3.94 40.14 2.82 38.1C1.74 36.1 0.98 34.2 0.54 32.4C0.18 30.64 0 26.78 0 20.82C0 17.34 0.18 14.3 0.54 11.7C0.9 9.1 1.58 6.98 2.58 5.34C3.74 3.54 5.2 2.22 6.96 1.38C8.8 0.5 11.42 0.0399995 14.82 0C19.22 0.639999 22.12 2.2 23.52 4.68C24.92 7.16 25.74 9.82 25.98 12.66C26.22 15.46 26.34 18.72 26.34 22.44C26.34 26.28 26.08 29.7 25.56 32.7C25.08 35.86 23.74 38.38 21.54 40.26C19.38 42.1 16.56 43.02 13.08 43.02ZM14.28 3.48C13.12 3.48 11.78 3.9 10.26 4.74C8.82 5.5 7.7 6.68 6.9 8.28C6.18 9.72 5.82 11.28 5.82 12.96C5.82 14.12 5.84 15.08 5.88 15.84L5.94 21L6.06 26.82C6.18 30.1 6.8 32.42 7.92 33.78C9.52 35.7 10.52 36.94 10.92 37.5C11.76 38.62 13.12 39.18 15 39.18C16.16 39.18 17.36 38.76 18.6 37.92C19.88 37.04 20.98 35.8 21.9 34.2C22.78 32.72 23.22 30.82 23.22 28.5L23.16 24.3C23.12 23.78 23.1 23.12 23.1 22.32C23.18 19.28 23.22 17.28 23.22 16.32C23.22 13.96 23.14 12.2 22.98 11.04C22.66 8.6 22.16 6.78 21.48 5.58C20.76 4.3 19.72 3.6 18.36 3.48C17.48 3.4 16.8 3.36 16.32 3.36C15.92 3.36 15.24 3.4 14.28 3.48Z" fill="#007AFF"/>
</svg>
