<svg width="32" height="44" viewBox="0 0 32 44" fill="none" xmlns="http://www.w3.org/2000/svg">
<path d="M16.02 18.24C16.22 18.24 16.38 18.16 16.5 18C16.66 17.8 16.8 17.56 16.92 17.28C17.04 16.96 17.18 16.68 17.34 16.44L20.64 11.04C22.52 7.96 23.96 5.74 24.96 4.38C25.32 3.9 25.68 3.28 26.04 2.52C26.64 1.36 27.12 0.680001 27.48 0.480001C28.2 0.160001 28.92 0 29.64 0C30.32 0 30.82 0.120001 31.14 0.360003C31.5 0.600002 31.6 0.940001 31.44 1.38C31.24 1.98 30.62 2.98 29.58 4.38C28.94 5.18 28 6.54 26.76 8.46L25.26 10.74C24.78 11.42 23.84 13.1 22.44 15.78C21.04 18.46 20.02 20.44 19.38 21.72C19.1 22.12 18.96 22.46 18.96 22.74C18.96 22.94 19.1 23.36 19.38 24C19.5 24.24 20.06 25.16 21.06 26.76C21.26 27.08 21.48 27.42 21.72 27.78C21.96 28.14 22.18 28.52 22.38 28.92C24.06 31.96 25.44 34.2 26.52 35.64C27.28 36.84 28.08 38.14 28.92 39.54C29.76 40.94 30.42 42.06 30.9 42.9C31.06 43.18 31.14 43.4 31.14 43.56C31.14 43.84 30.78 43.98 30.06 43.98L26.28 43.92C26.04 43.88 25.86 43.78 25.74 43.62C25.62 43.5 25.48 43.24 25.32 42.84L24.66 41.52C24.46 41.08 23.92 40.26 23.04 39.06C22.04 37.7 21.38 36.64 21.06 35.88C20.66 35.16 19.9 33.88 18.78 32.04C17.7 30.16 16.86 28.72 16.26 27.72C15.98 27.32 15.74 27.12 15.54 27.12C15.38 27.12 15.12 27.36 14.76 27.84C14.2 28.52 13.62 29.28 13.02 30.12C12.02 31.48 11.28 32.46 10.8 33.06C10.24 33.78 9.48 34.92 8.52 36.48C7.6 38.04 6.98 39.22 6.66 40.02C6.3 40.78 5.8 41.54 5.16 42.3C4.56 43.06 4.08 43.52 3.72 43.68C3.4 43.76 3.06 43.8 2.7 43.8C1.98 43.8 1.26 43.7 0.54 43.5C0.18 43.38 0 43.2 0 42.96C0 42.76 0.12 42.46 0.36 42.06C0.6 41.66 0.78 41.38 0.9 41.22C1.14 40.82 1.78 39.9 2.82 38.46C3.9 36.98 4.68 35.9 5.16 35.22C5.16 35.22 5.8 34.34 7.08 32.58C7.56 31.94 8.54 30.5 10.02 28.26C10.94 26.74 11.68 25.64 12.24 24.96C12.72 24.28 12.96 23.66 12.96 23.1C12.96 22.7 12.82 22.22 12.54 21.66C12.34 21.26 11.66 20.08 10.5 18.12L7.68 13.02C7.16 12.02 5.66 9.6 3.18 5.76C2.02 4 1.26 2.8 0.9 2.16C0.62 1.72 0.48 1.36 0.48 1.08C0.48 0.720001 0.7 0.54 1.14 0.54C1.78 0.54 2.28 0.520001 2.64 0.480001L4.38 0.420002C4.7 0.460001 4.98 0.620001 5.22 0.900002C5.5 1.18 5.82 1.62 6.18 2.22L7.02 3.48L7.68 4.56C9.12 6.84 10.22 8.62 10.98 9.9C11.7 11.18 12.76 12.98 14.16 15.3C14.8 16.38 15.42 17.36 16.02 18.24Z" fill="#FF0000"/>
</svg>
